<?xml version="1.0" encoding="utf-8"?>
<!-- Generator: Adobe Illustrator 21.1.0, SVG Export Plug-In . SVG Version: 6.00 Build 0)  -->
<svg version="1.1" id="Layer_1" xmlns="http://www.w3.org/2000/svg" xmlns:xlink="http://www.w3.org/1999/xlink" x="0px" y="0px"
	 viewBox="0 0 189.9 121.9" style="enable-background:new 0 0 189.9 121.9;" xml:space="preserve">
<style type="text/css">
	.st0{fill:#FFFFFF;}
</style>
<g>
	<path class="st0" d="M0.2,83.8v-2.3c3.2-0.4,5.6-1.6,7.2-3.6s4.3-7.6,8.2-16.8L41.5,0H44l31,70.5c2.1,4.7,3.7,7.6,5,8.7
		c1.2,1.1,3.3,1.9,6.2,2.3v2.3H54.5v-2.3c3.6-0.3,6-0.7,7-1.2c1.1-0.5,1.6-1.6,1.6-3.4c0-0.6-0.2-1.7-0.6-3.2
		c-0.4-1.5-1-3.1-1.7-4.8l-5-12H23C19.8,65,17.9,70,17.3,71.8s-0.9,3.2-0.9,4.3c0,2.1,0.8,3.5,2.6,4.4c1.1,0.5,3,0.8,5.9,1.1v2.3
		H0.2V83.8z M53.7,51.8L39.5,17.6L25.2,51.8H53.7z"/>
</g>
<g>
	<path class="st0" d="M0,104.4c0.5-0.1,0.9-0.1,1-0.3c0.2-0.1,0.2-0.5,0.2-1v-6.3c0-0.5-0.1-0.8-0.2-1c-0.2-0.2-0.5-0.3-1-0.3v-0.3
		h7.5v2H7.2c-0.1-0.6-0.3-1-0.5-1.2s-0.8-0.3-1.6-0.3h-2c-0.2,0-0.3,0-0.4,0.1c0,0.1-0.1,0.2-0.1,0.4v3.2h2.2c0.6,0,1-0.1,1.2-0.3
		c0.2-0.2,0.3-0.5,0.4-1.1h0.3v3.3H6.4c-0.1-0.6-0.2-0.9-0.4-1.1c-0.2-0.2-0.6-0.3-1.2-0.3H2.7v3.5c0,0.3,0.1,0.4,0.3,0.5
		s0.7,0.1,1.6,0.1c1,0,1.7-0.1,2.1-0.3c0.5-0.2,0.9-0.7,1.2-1.5h0.4l-0.6,2.4H0V104.4z"/>
	<path class="st0" d="M8.7,104.4c0.6-0.1,1-0.2,1.1-0.4s0.2-0.7,0.2-1.4v-6.3l-0.2-0.2c-0.2-0.2-0.4-0.4-0.5-0.5s-0.4-0.1-0.7-0.1
		v-0.3H11l5.5,6.8v-4.7c0-0.8-0.1-1.3-0.3-1.5c-0.2-0.2-0.5-0.2-1-0.3v-0.3h3.3v0.3c-0.5,0.1-0.9,0.2-1.1,0.4
		c-0.2,0.2-0.3,0.7-0.3,1.4v7.5H17L10.7,97v5.5c0,0.8,0.1,1.3,0.3,1.5c0.1,0.2,0.5,0.3,1,0.3v0.3H8.7V104.4z"/>
	<path class="st0" d="M22.8,95.3v0.2c-0.4,0-0.6,0-0.7,0.1c-0.2,0.1-0.3,0.2-0.3,0.5c0,0.1,0,0.3,0.1,0.5s0.2,0.6,0.5,1.1l2.2,4.9
		l2-5.4c0.1-0.2,0.2-0.4,0.2-0.6s0.1-0.3,0.1-0.4c0-0.3-0.1-0.5-0.4-0.6c-0.1-0.1-0.4-0.1-0.7-0.1v-0.2h2.9v0.2
		c-0.3,0-0.5,0.1-0.7,0.2c-0.2,0.2-0.4,0.5-0.6,1.1l-3.1,8H24L20.5,97c-0.3-0.7-0.5-1.1-0.7-1.2c-0.2-0.2-0.4-0.3-0.8-0.3v-0.2H22.8
		z"/>
	<path class="st0" d="M29.3,104.4c0.6,0,1-0.1,1.1-0.3c0.2-0.1,0.3-0.5,0.3-1v-6.3c0-0.5-0.1-0.9-0.3-1c-0.2-0.1-0.5-0.2-1.1-0.3
		v-0.3h4.2v0.3c-0.6,0-1,0.1-1.1,0.3c-0.2,0.2-0.3,0.5-0.3,1v6.3c0,0.5,0.1,0.9,0.3,1s0.5,0.2,1.1,0.3v0.3h-4.2V104.4z"/>
	<path class="st0" d="M33.9,104.4c0.5-0.1,0.9-0.2,1-0.3c0.1-0.2,0.2-0.5,0.2-1.1v-6.2c0-0.5-0.1-0.8-0.2-1c-0.2-0.2-0.5-0.3-1-0.3
		v-0.3h3.9c0.8,0,1.5,0.1,2,0.3c1,0.4,1.6,1.1,1.6,2.2c0,0.7-0.2,1.2-0.7,1.6s-1.1,0.6-1.9,0.7l2.9,3.6c0.2,0.2,0.4,0.4,0.5,0.5
		c0.2,0.1,0.4,0.2,0.7,0.2v0.3h-2.3l-3.6-4.4h-0.6v2.8c0,0.5,0.1,0.9,0.2,1c0.2,0.1,0.5,0.2,1,0.3v0.3h-3.9v-0.2H33.9z M38.8,99.5
		c0.8-0.3,1.1-0.9,1.1-1.7c0-0.8-0.3-1.4-1-1.7c-0.4-0.2-0.8-0.2-1.4-0.2c-0.4,0-0.6,0-0.7,0.1c-0.1,0.1-0.1,0.2-0.1,0.4v3.5
		C37.6,99.8,38.3,99.7,38.8,99.5z"/>
	<path class="st0" d="M45.1,96.3C46,95.5,47,95,48.3,95s2.4,0.4,3.2,1.3c0.9,0.9,1.4,2.1,1.4,3.6s-0.5,2.8-1.5,3.7
		c-0.9,0.8-1.9,1.2-3.2,1.2s-2.4-0.5-3.3-1.4c-0.9-0.9-1.3-2.1-1.3-3.5C43.7,98.5,44.1,97.3,45.1,96.3z M46.2,103.3
		c0.6,0.7,1.3,1.1,2.2,1.1c0.8,0,1.6-0.3,2.1-1s0.9-1.8,0.9-3.3s-0.3-2.7-0.9-3.4c-0.6-0.7-1.3-1-2.1-1c-0.9,0-1.6,0.4-2.2,1.1
		c-0.6,0.7-0.9,1.8-0.9,3.3C45.3,101.5,45.6,102.6,46.2,103.3z"/>
	<path class="st0" d="M53.7,104.4c0.6-0.1,1-0.2,1.1-0.4s0.2-0.7,0.2-1.4v-6.3l-0.2-0.2c-0.2-0.2-0.4-0.4-0.5-0.5s-0.4-0.1-0.7-0.1
		v-0.3H56l5.5,6.8v-4.7c0-0.8-0.1-1.3-0.3-1.5s-0.5-0.2-1-0.3v-0.3h3.3v0.3c-0.5,0.1-0.9,0.2-1.1,0.4c-0.2,0.2-0.3,0.7-0.3,1.4v7.5
		h-0.2L55.6,97v5.5c0,0.8,0.1,1.3,0.3,1.5c0.1,0.2,0.5,0.3,1,0.3v0.3h-3.3L53.7,104.4L53.7,104.4z"/>
	<path class="st0" d="M63.9,104.4c0.6-0.1,1-0.2,1.1-0.4s0.2-0.7,0.2-1.4v-5.8c0-0.5-0.1-0.8-0.2-1c-0.2-0.2-0.5-0.2-1.1-0.3v-0.3
		h2.8l3.3,7.1l3.2-7.1H76v0.3c-0.5,0-0.9,0.1-1,0.3c-0.2,0.2-0.2,0.5-0.2,1v6.3c0,0.5,0.1,0.8,0.2,1c0.2,0.1,0.5,0.2,1,0.3v0.3h-4
		v-0.3c0.6,0,0.9-0.1,1.1-0.3c0.1-0.2,0.2-0.5,0.2-1.1v-6.4l-3.6,8.1h-0.2l-3.6-7.8v5.7c0,0.8,0.1,1.3,0.3,1.5
		c0.1,0.2,0.5,0.3,1,0.3v0.3h-3.3C63.9,104.7,63.9,104.4,63.9,104.4z"/>
	<path class="st0" d="M76.5,104.4c0.5-0.1,0.9-0.1,1-0.3c0.2-0.1,0.2-0.5,0.2-1v-6.3c0-0.5-0.1-0.8-0.2-1c-0.2-0.2-0.5-0.3-1-0.3
		v-0.3H84v2h-0.4c-0.1-0.6-0.3-1-0.5-1.2s-0.8-0.3-1.6-0.3h-1.9c-0.2,0-0.3,0-0.4,0.1c0,0.1-0.1,0.2-0.1,0.4v3.2h2.2
		c0.6,0,1-0.1,1.2-0.3c0.2-0.2,0.3-0.5,0.4-1.1h0.3v3.3H83c-0.1-0.6-0.2-0.9-0.4-1.1c-0.2-0.2-0.6-0.3-1.2-0.3h-2.2v3.5
		c0,0.3,0.1,0.4,0.3,0.5c0.2,0.1,0.7,0.1,1.6,0.1c1,0,1.7-0.1,2.1-0.3c0.5-0.2,0.9-0.7,1.2-1.5h0.4l-0.6,2.4h-7.7
		C76.5,104.6,76.5,104.4,76.5,104.4z"/>
	<path class="st0" d="M85.2,104.4c0.6-0.1,1-0.2,1.1-0.4s0.2-0.7,0.2-1.4v-6.3l-0.2-0.2c-0.2-0.2-0.4-0.4-0.5-0.5s-0.4-0.1-0.7-0.1
		v-0.3h2.4L93,102v-4.7c0-0.8-0.1-1.3-0.3-1.5c-0.2-0.2-0.5-0.2-1-0.3v-0.3H95v0.3c-0.5,0.1-0.9,0.2-1.1,0.4
		c-0.2,0.2-0.3,0.7-0.3,1.4v7.5h-0.2L87.1,97v5.5c0,0.8,0.1,1.3,0.3,1.5c0.1,0.2,0.5,0.3,1,0.3v0.3h-3.3L85.2,104.4L85.2,104.4z"/>
	<path class="st0" d="M95.6,95.3h8l0.1,2.4h-0.3c-0.2-0.8-0.4-1.3-0.6-1.5c-0.3-0.2-0.8-0.3-1.6-0.3h-0.8v7.3c0,0.5,0.1,0.9,0.3,1
		c0.2,0.1,0.5,0.2,1.1,0.3v0.3h-4.1v-0.3c0.6,0,1-0.1,1.1-0.3s0.2-0.5,0.2-1.1V96h-0.8c-0.8,0-1.3,0.1-1.6,0.3
		c-0.3,0.2-0.5,0.7-0.6,1.5h-0.3L95.6,95.3z"/>
	<path class="st0" d="M103.1,104.7v-0.3c0.4,0,0.6-0.2,0.8-0.4c0.2-0.2,0.5-0.9,0.9-1.9l3-7h0.3l3.5,8.1c0.2,0.5,0.4,0.9,0.6,1
		s0.4,0.2,0.7,0.3v0.3h-3.6v-0.3c0.4,0,0.7-0.1,0.8-0.1c0.1-0.1,0.2-0.2,0.2-0.4c0-0.1,0-0.2-0.1-0.4c0-0.2-0.1-0.4-0.2-0.6
		l-0.6-1.4h-3.7c-0.4,0.9-0.6,1.5-0.7,1.7s-0.1,0.4-0.1,0.5c0,0.2,0.1,0.4,0.3,0.5c0.1,0.1,0.3,0.1,0.7,0.1v0.3
		C105.9,104.7,103.1,104.7,103.1,104.7z M109.2,101l-1.6-3.9L106,101H109.2z"/>
	<path class="st0" d="M113.3,104.4c0.5-0.1,0.9-0.1,1-0.3c0.2-0.1,0.2-0.5,0.2-1v-6.3c0-0.5-0.1-0.8-0.2-1c-0.2-0.2-0.5-0.3-1-0.3
		v-0.3h4v0.3c-0.5,0-0.9,0.1-1.1,0.3c-0.2,0.1-0.3,0.5-0.3,0.9v6.8c0,0.2,0,0.3,0.1,0.4s0.2,0.1,0.4,0.2c0.1,0,0.2,0,0.3,0
		c0.1,0,0.3,0,0.7,0c1.3,0,2.1-0.1,2.6-0.3c0.4-0.2,0.9-0.7,1.3-1.6h0.4l-0.7,2.5h-7.6v-0.3H113.3z"/>
	<path class="st0" d="M125.7,101.8c0.2,0.6,0.5,1.1,0.8,1.5c0.6,0.7,1.3,1,2.1,1c0.5,0,0.8-0.1,1.2-0.4c0.3-0.3,0.5-0.7,0.5-1.2
		s-0.2-0.9-0.5-1.2c-0.2-0.2-0.7-0.5-1.4-1l-1.2-0.8c-0.4-0.2-0.7-0.5-0.9-0.7c-0.4-0.4-0.6-0.9-0.6-1.5c0-0.7,0.2-1.3,0.7-1.8
		s1.1-0.7,1.9-0.7c0.3,0,0.7,0.1,1.2,0.2s0.7,0.2,0.8,0.2c0.2,0,0.3,0,0.4-0.1c0.1-0.1,0.1-0.2,0.2-0.4h0.3l0.3,3h-0.3
		c-0.2-0.9-0.6-1.5-1.1-1.9s-1-0.5-1.5-0.5c-0.4,0-0.7,0.1-1,0.3c-0.3,0.2-0.4,0.5-0.4,1c0,0.4,0.1,0.7,0.3,0.9
		c0.2,0.3,0.6,0.5,1,0.8l1.2,0.8c0.8,0.5,1.3,0.9,1.7,1.3c0.3,0.4,0.5,0.9,0.5,1.4c0,0.7-0.3,1.4-0.8,1.9c-0.6,0.5-1.3,0.7-2.2,0.7
		c-0.4,0-0.9-0.1-1.4-0.2c-0.5-0.2-0.8-0.2-0.8-0.2c-0.2,0-0.3,0.1-0.3,0.2c-0.1,0.1-0.1,0.2-0.1,0.3H126l-0.4-3L125.7,101.8
		L125.7,101.8z"/>
	<path class="st0" d="M132.9,104.4c0.5-0.1,0.9-0.1,1-0.3c0.2-0.1,0.2-0.5,0.2-1v-6.3c0-0.5-0.1-0.8-0.2-1s-0.5-0.3-1-0.3v-0.3h7.5
		v2H140c-0.1-0.6-0.3-1-0.5-1.2s-0.8-0.3-1.6-0.3H136c-0.2,0-0.3,0-0.4,0.1c0,0.1-0.1,0.2-0.1,0.4v3.2h2.2c0.6,0,1-0.1,1.2-0.3
		c0.2-0.2,0.3-0.5,0.4-1.1h0.3v3.3h-0.3c-0.1-0.6-0.2-0.9-0.4-1.1s-0.6-0.3-1.2-0.3h-2.2v3.5c0,0.3,0.1,0.4,0.3,0.5s0.7,0.1,1.6,0.1
		c1,0,1.7-0.1,2.1-0.3c0.5-0.2,0.9-0.7,1.2-1.5h0.4l-0.6,2.4h-7.7L132.9,104.4L132.9,104.4z"/>
	<path class="st0" d="M141.6,104.4c0.5-0.1,0.9-0.2,1-0.3c0.1-0.2,0.2-0.5,0.2-1.1v-6.2c0-0.5-0.1-0.8-0.2-1c-0.2-0.2-0.5-0.3-1-0.3
		v-0.3h3.9c0.8,0,1.5,0.1,2,0.3c1,0.4,1.6,1.1,1.6,2.2c0,0.7-0.2,1.2-0.7,1.6s-1.1,0.6-1.9,0.7l2.9,3.6c0.2,0.2,0.4,0.4,0.5,0.5
		c0.2,0.1,0.4,0.2,0.7,0.2v0.3h-2.3l-3.6-4.4h-0.6v2.8c0,0.5,0.1,0.9,0.2,1c0.2,0.1,0.5,0.2,1,0.3v0.3h-3.9v-0.2H141.6z M146.4,99.5
		c0.8-0.3,1.1-0.9,1.1-1.7c0-0.8-0.3-1.4-1-1.7c-0.4-0.2-0.8-0.2-1.4-0.2c-0.4,0-0.6,0-0.7,0.1c-0.1,0.1-0.1,0.2-0.1,0.4v3.5
		C145.3,99.8,146,99.7,146.4,99.5z"/>
	<path class="st0" d="M153.8,95.3v0.2c-0.4,0-0.6,0-0.7,0.1c-0.2,0.1-0.3,0.2-0.3,0.5c0,0.1,0,0.3,0.1,0.5s0.2,0.6,0.5,1.1l2.2,4.9
		l2-5.4c0.1-0.2,0.2-0.4,0.2-0.6s0.1-0.3,0.1-0.4c0-0.3-0.1-0.5-0.4-0.6c-0.1-0.1-0.4-0.1-0.7-0.1v-0.2h2.9v0.2
		c-0.3,0-0.5,0.1-0.7,0.2c-0.2,0.2-0.4,0.5-0.6,1.1l-3.1,8H155l-3.5-7.8c-0.3-0.7-0.5-1.1-0.7-1.2c-0.2-0.2-0.4-0.3-0.8-0.3v-0.2
		C150,95.3,153.8,95.3,153.8,95.3z"/>
	<path class="st0" d="M160.2,104.4c0.6,0,1-0.1,1.1-0.3c0.2-0.1,0.3-0.5,0.3-1v-6.3c0-0.5-0.1-0.9-0.3-1s-0.5-0.2-1.1-0.3v-0.3h4.2
		v0.3c-0.6,0-1,0.1-1.1,0.3c-0.2,0.2-0.3,0.5-0.3,1v6.3c0,0.5,0.1,0.9,0.3,1s0.5,0.2,1.1,0.3v0.3h-4.2V104.4z"/>
	<path class="st0" d="M171.6,95.3c0.5,0.2,0.8,0.2,0.9,0.2c0.1,0,0.3,0,0.4-0.1c0.1-0.1,0.2-0.2,0.2-0.3h0.3l0.1,3.2h-0.3
		c-0.2-0.6-0.4-1.1-0.7-1.5c-0.6-0.7-1.4-1.1-2.4-1.1s-1.8,0.4-2.4,1.2c-0.6,0.8-0.9,1.9-0.9,3.2c0,1.3,0.3,2.3,1,3
		c0.7,0.8,1.5,1.1,2.5,1.1c0.7,0,1.4-0.2,2-0.5c0.4-0.2,0.7-0.5,1.2-0.9l0.3,0.3c-0.3,0.4-0.7,0.7-1.2,1c-0.8,0.5-1.7,0.8-2.6,0.8
		c-1.5,0-2.7-0.5-3.6-1.5c-0.8-0.9-1.2-2-1.2-3.4s0.4-2.5,1.3-3.5c0.9-1,2.1-1.5,3.6-1.5C170.5,95.1,171,95.2,171.6,95.3z"/>
	<path class="st0" d="M174.4,104.4c0.5-0.1,0.9-0.1,1-0.3c0.2-0.1,0.2-0.5,0.2-1v-6.3c0-0.5-0.1-0.8-0.2-1c-0.2-0.2-0.5-0.3-1-0.3
		v-0.3h7.5v2h-0.4c-0.1-0.6-0.3-1-0.5-1.2s-0.8-0.3-1.6-0.3h-1.9c-0.2,0-0.3,0-0.4,0.1S177,96,177,96.2v3.2h2.2c0.6,0,1-0.1,1.2-0.3
		c0.2-0.2,0.3-0.5,0.4-1.1h0.3v3.3h-0.3c-0.1-0.6-0.2-0.9-0.4-1.1s-0.5-0.3-1.2-0.3H177v3.5c0,0.3,0.1,0.4,0.3,0.5s0.7,0.1,1.6,0.1
		c1,0,1.7-0.1,2.1-0.3c0.5-0.2,0.9-0.7,1.2-1.5h0.4l-0.6,2.4h-7.7L174.4,104.4L174.4,104.4z"/>
	<path class="st0" d="M183.8,101.8c0.2,0.6,0.5,1.1,0.8,1.5c0.6,0.7,1.3,1,2.1,1c0.5,0,0.8-0.1,1.2-0.4c0.3-0.3,0.5-0.7,0.5-1.2
		s-0.2-0.9-0.5-1.2c-0.2-0.2-0.7-0.5-1.4-1l-1.2-0.8c-0.4-0.2-0.7-0.5-0.9-0.7c-0.4-0.4-0.6-0.9-0.6-1.5c0-0.7,0.2-1.3,0.7-1.8
		s1.1-0.7,1.9-0.7c0.3,0,0.7,0.1,1.2,0.2c0.5,0.2,0.7,0.2,0.8,0.2c0.2,0,0.3,0,0.4-0.1c0.1-0.1,0.1-0.2,0.2-0.4h0.3l0.3,3h-0.3
		c-0.2-0.9-0.6-1.5-1.1-1.9s-1-0.5-1.5-0.5c-0.4,0-0.7,0.1-1,0.3s-0.4,0.5-0.4,1c0,0.4,0.1,0.7,0.3,0.9c0.2,0.3,0.6,0.5,1,0.8
		l1.2,0.8c0.8,0.5,1.3,0.9,1.7,1.3c0.3,0.4,0.5,0.9,0.5,1.4c0,0.7-0.3,1.4-0.8,1.9c-0.6,0.5-1.3,0.7-2.2,0.7c-0.4,0-0.9-0.1-1.4-0.2
		s-0.8-0.2-0.8-0.2c-0.2,0-0.3,0.1-0.3,0.2c-0.1,0.1-0.1,0.2-0.1,0.3h-0.3l-0.4-3L183.8,101.8L183.8,101.8z"/>
	<path class="st0" d="M55.4,112.3h8l0.1,2.4h-0.3c-0.2-0.8-0.4-1.3-0.6-1.5c-0.3-0.2-0.8-0.3-1.6-0.3h-0.8v7.3c0,0.5,0.1,0.9,0.3,1
		s0.5,0.2,1.1,0.3v0.3h-4.1v-0.3c0.6,0,1-0.1,1.1-0.3s0.2-0.5,0.2-1.1V113H58c-0.8,0-1.3,0.1-1.6,0.3c-0.3,0.2-0.5,0.7-0.6,1.5h-0.3
		L55.4,112.3z"/>
	<path class="st0" d="M64,121.5c0.5-0.1,0.9-0.1,1-0.3c0.2-0.1,0.2-0.5,0.2-1v-6.3c0-0.5-0.1-0.8-0.2-1c-0.2-0.2-0.5-0.3-1-0.3v-0.3
		h7.5v2h-0.4c-0.1-0.6-0.3-1-0.5-1.2s-0.8-0.3-1.6-0.3h-1.9c-0.2,0-0.3,0-0.4,0.1c0,0.1-0.1,0.2-0.1,0.4v3.2h2.2
		c0.6,0,1-0.1,1.2-0.3c0.2-0.2,0.3-0.5,0.4-1.1h0.3v3.3h-0.3c-0.1-0.6-0.2-0.9-0.4-1.1c-0.2-0.2-0.6-0.3-1.2-0.3h-2.2v3.5
		c0,0.3,0.1,0.4,0.3,0.5c0.2,0.1,0.7,0.1,1.6,0.1c1,0,1.7-0.1,2.1-0.3c0.5-0.2,0.9-0.7,1.2-1.5h0.4l-0.6,2.4H64V121.5z"/>
	<path class="st0" d="M72.6,121.5c0.6-0.1,1-0.2,1.1-0.4s0.2-0.7,0.2-1.4v-5.8c0-0.5-0.1-0.8-0.2-1c-0.2-0.2-0.5-0.2-1.1-0.3v-0.3
		h2.8l3.3,7.1l3.2-7.1h2.8v0.3c-0.5,0-0.9,0.1-1,0.3c-0.2,0.2-0.2,0.5-0.2,1v6.3c0,0.5,0.1,0.8,0.2,1c0.2,0.1,0.5,0.2,1,0.3v0.3h-4
		v-0.3c0.6,0,0.9-0.1,1.1-0.3c0.1-0.2,0.2-0.5,0.2-1.1v-6.4l-3.6,8.1h-0.2l-3.6-7.8v5.7c0,0.8,0.1,1.3,0.3,1.5
		c0.1,0.2,0.5,0.3,1,0.3v0.3h-3.3C72.6,121.8,72.6,121.5,72.6,121.5z"/>
	<path class="st0" d="M85.3,121.5c0.5-0.1,0.9-0.2,1-0.3c0.1-0.2,0.2-0.5,0.2-1.1v-6.2c0-0.5-0.1-0.8-0.2-1s-0.5-0.3-1-0.3v-0.3H89
		c1.2,0,2.1,0.2,2.8,0.7c0.6,0.5,1,1.1,1,1.8c0,1-0.4,1.7-1.1,2.1s-1.6,0.7-2.7,0.7c-0.2,0-0.3,0-0.6,0s-0.4,0-0.5,0v2.6
		c0,0.5,0.1,0.9,0.2,1c0.2,0.1,0.5,0.2,1.1,0.3v0.3h-4L85.3,121.5L85.3,121.5z M90.1,113.1c-0.4-0.2-0.9-0.3-1.5-0.3
		c-0.3,0-0.5,0-0.5,0.1s-0.1,0.2-0.1,0.4v3.7c0.3,0,0.4,0,0.5,0s0.2,0,0.2,0c0.7,0,1.2-0.1,1.5-0.3c0.7-0.3,1-1,1-1.9
		C91.3,114,90.9,113.4,90.1,113.1z"/>
	<path class="st0" d="M96.2,121.5c0.5-0.1,0.9-0.1,1-0.3c0.2-0.1,0.2-0.5,0.2-1v-6.3c0-0.5-0.1-0.8-0.2-1c-0.2-0.2-0.5-0.3-1-0.3
		v-0.3h4v0.3c-0.5,0-0.9,0.1-1.1,0.3c-0.2,0.1-0.3,0.5-0.3,0.9v6.8c0,0.2,0,0.3,0.1,0.4s0.2,0.1,0.4,0.2c0.1,0,0.2,0,0.3,0
		c0.1,0,0.3,0,0.7,0c1.3,0,2.1-0.1,2.6-0.3c0.4-0.2,0.9-0.7,1.3-1.6h0.4l-0.7,2.5h-7.6v-0.3H96.2z"/>
	<path class="st0" d="M106.6,113.4c0.9-0.8,1.9-1.3,3.2-1.3c1.3,0,2.4,0.4,3.2,1.3c0.9,0.9,1.4,2.1,1.4,3.6s-0.5,2.8-1.5,3.7
		c-0.9,0.8-1.9,1.2-3.2,1.2c-1.3,0-2.4-0.5-3.3-1.4s-1.3-2.1-1.3-3.5C105.1,115.5,105.6,114.3,106.6,113.4z M107.6,120.3
		c0.6,0.7,1.3,1.1,2.2,1.1c0.8,0,1.6-0.3,2.1-1s0.9-1.8,0.9-3.3s-0.3-2.7-0.9-3.4c-0.6-0.7-1.3-1-2.1-1c-0.9,0-1.6,0.4-2.2,1.1
		s-0.9,1.8-0.9,3.3C106.8,118.5,107.1,119.6,107.6,120.3z"/>
	<path class="st0" d="M121.9,112.4c0.5,0.2,0.8,0.2,0.9,0.2c0.2,0,0.3,0,0.4-0.1s0.2-0.2,0.2-0.3h0.3l0.1,3h-0.3
		c-0.3-0.7-0.6-1.2-0.9-1.5c-0.6-0.6-1.3-0.9-2.2-0.9c-0.9,0-1.7,0.3-2.4,1s-1,1.8-1,3.4c0,1.3,0.3,2.3,1,3.1
		c0.7,0.7,1.5,1.1,2.6,1.1c0.2,0,0.4,0,0.6,0s0.5-0.1,0.7-0.2c0.3-0.1,0.5-0.2,0.6-0.3c0.1-0.1,0.1-0.2,0.1-0.4v-2.3
		c0-0.5-0.1-0.9-0.2-1s-0.5-0.2-1-0.3v-0.3h3.6v0.3c-0.4,0-0.6,0.1-0.7,0.2c-0.2,0.1-0.3,0.5-0.3,0.9v2.8c0,0.2-0.4,0.4-1.2,0.7
		c-0.8,0.3-1.6,0.4-2.4,0.4c-1.4,0-2.6-0.4-3.5-1.2c-1-0.9-1.6-2.1-1.6-3.6c0-1.3,0.4-2.5,1.3-3.4c0.9-1,2.1-1.6,3.7-1.6
		C120.8,112.2,121.3,112.2,121.9,112.4z"/>
	<path class="st0" d="M127.1,113.4c0.9-0.8,1.9-1.3,3.2-1.3s2.4,0.4,3.2,1.3c0.9,0.9,1.4,2.1,1.4,3.6s-0.5,2.8-1.5,3.7
		c-0.9,0.8-1.9,1.2-3.2,1.2s-2.4-0.5-3.3-1.4s-1.3-2.1-1.3-3.5C125.7,115.5,126.1,114.3,127.1,113.4z M128.2,120.3
		c0.6,0.7,1.3,1.1,2.2,1.1c0.8,0,1.6-0.3,2.1-1s0.9-1.8,0.9-3.3s-0.3-2.7-0.9-3.4c-0.6-0.7-1.3-1-2.1-1c-0.9,0-1.6,0.4-2.2,1.1
		c-0.6,0.7-0.9,1.8-0.9,3.3C127.3,118.5,127.6,119.6,128.2,120.3z"/>
</g>
<g>
	<path class="st0" d="M100.2,83.8v-2.3c3.2-0.4,5.6-1.6,7.2-3.6s4.3-7.6,8.2-16.8l26-61.1h2.5l31,70.5c2.1,4.7,3.7,7.6,5,8.7
		c1.2,1.1,3.3,1.9,6.2,2.3v2.3h-31.6v-2.3c3.6-0.3,6-0.7,7-1.2c1.1-0.5,1.6-1.6,1.6-3.4c0-0.6-0.2-1.7-0.6-3.2
		c-0.4-1.5-1-3.1-1.7-4.8l-5-12h-32.8C120,65,118,70,117.4,71.8c-0.6,1.8-0.9,3.2-0.9,4.3c0,2.1,0.8,3.5,2.6,4.4
		c1.1,0.5,3,0.8,5.9,1.1v2.3h-24.8V83.8z M153.8,51.8l-14.3-34.3l-14.3,34.3H153.8z"/>
</g>
<g>
	<path class="st0" d="M86.8,28.9c-0.2-0.5-0.5-1.1-0.8-2c-0.3-0.8-0.5-1.5-0.6-2c-0.1-0.6-0.3-1.1-0.3-1.7C85,22.6,85,22.1,85,21.5
		c0-2.6,0.8-4.7,2.3-6.4s3.5-2.5,5.9-2.5c2.2,0,4,0.6,5.4,1.8s2.1,2.8,2.1,4.8c0,2.3-0.9,4.3-2.7,5.8s-3.7,2.7-5.7,3.6
		c1.6,2.8,2.7,4.9,3.5,6c0.7,1.2,2,2.9,3.8,5.2c1.9-2.3,3.2-4.3,3.9-5.9c0.7-1.6,1.1-2.9,1.1-3.9s-0.4-1.7-1.1-2.1
		c-0.5-0.2-1.3-0.4-2.4-0.5v-1.1H113v1.1c-1.2,0.1-2.1,0.4-2.7,0.6c-1,0.5-1.8,1.3-2.5,2.6l-1.4,2.5c-1,1.8-1.8,3.2-2.5,4.2
		s-1.7,2.3-3,4c0.7,0.8,1.5,1.7,2.5,2.5c2,1.7,4,2.5,6,2.5c1.2,0,2.2-0.3,3-0.9c0.5-0.4,1.2-1,2-2.1l0.8,0.6c-0.1,0.4-0.5,1.1-1.1,2
		s-1.3,1.6-1.9,2.1c-0.9,0.8-2,1.4-3.3,1.7c-0.7,0.2-1.5,0.3-2.2,0.3c-1.7,0-3.5-0.5-5.2-1.6c-1-0.6-2.4-1.8-4.1-3.4
		c-1.6,1.5-3.2,2.6-4.9,3.4C90.4,49.5,88,50,85.4,50c-2.9,0-5.2-0.8-6.9-2.3c-1.7-1.5-2.6-3.6-2.6-6.2c0-2.5,0.8-4.6,2.3-6.5
		s3.7-3.6,6.4-5.1L86.8,28.9z M91.9,46.5c1.4-0.6,2.8-1.5,4.1-2.7c-1.7-2.1-3-3.9-3.9-5.4s-2.4-4-4.4-7.6c-1.8,1.1-3.3,2.2-4.2,3.3
		c-1.5,1.7-2.3,3.6-2.3,5.8c0,2,0.7,3.8,2,5.3s3,2.2,5.1,2.2C89.3,47.4,90.5,47.1,91.9,46.5z M95.4,24.1c1.6-1.5,2.4-3.2,2.4-5.1
		c0-1.4-0.4-2.5-1.2-3.4c-0.8-0.9-1.8-1.3-3.1-1.3c-1.4,0-2.4,0.4-3.1,1.3c-0.7,0.9-1.1,2-1.1,3.5c0,1.1,0.2,2.3,0.6,3.6
		c0.4,1.3,0.9,2.7,1.6,4C93.2,25.9,94.5,24.9,95.4,24.1z"/>
</g>
</svg>
